<svg width="46" height="52" viewBox="0 0 46 52" fill="none" xmlns="http://www.w3.org/2000/svg">
<path d="M2 11.6L9 2H37L44 11.6M2 11.6V45.2C2 46.473 2.49167 47.6939 3.36683 48.5941C4.242 49.4943 5.42899 50 6.66667 50H39.3333C40.571 50 41.758 49.4943 42.6332 48.5941C43.5083 47.6939 44 46.473 44 45.2V11.6M2 11.6H44M32.3333 21.2C32.3333 23.7461 31.35 26.1879 29.5997 27.9882C27.8493 29.7886 25.4754 30.8 23 30.8C20.5246 30.8 18.1507 29.7886 16.4003 27.9882C14.65 26.1879 13.6667 23.7461 13.6667 21.2" stroke="#F7E48C" stroke-width="4" stroke-linecap="round" stroke-linejoin="round"/>
</svg>
